<?xml version="1.0" encoding="utf-8"?>
<!-- Generator: Adobe Illustrator 19.2.1, SVG Export Plug-In . SVG Version: 6.00 Build 0)  -->
<svg version="1.2" baseProfile="tiny" id="Design" xmlns="http://www.w3.org/2000/svg" xmlns:xlink="http://www.w3.org/1999/xlink"
	 x="0px" y="0px" viewBox="0 0 159 187" xml:space="preserve">
<g>
	
		<line fill="none" stroke="#000000" stroke-width="3" stroke-linecap="round" stroke-linejoin="round" stroke-miterlimit="10" x1="82.5" y1="69.5" x2="87.5" y2="64.5"/>
	
		<line fill="none" stroke="#000000" stroke-width="3" stroke-linecap="round" stroke-linejoin="round" stroke-miterlimit="10" x1="82.5" y1="78.5" x2="90.5" y2="78.5"/>
	
		<polygon fill="#FFFFFF" stroke="#000000" stroke-width="4" stroke-linecap="round" stroke-linejoin="round" stroke-miterlimit="10" points="
		76,122 34,122 34,48 76,48 	"/>
	
		<line fill="#FFFFFF" stroke="#000000" stroke-width="3" stroke-linecap="round" stroke-linejoin="round" stroke-miterlimit="10" x1="34.5" y1="111.5" x2="75.5" y2="111.5"/>
	
		<line fill="none" stroke="#000000" stroke-width="3" stroke-linecap="round" stroke-linejoin="round" stroke-miterlimit="10" x1="75.5" y1="54.5" x2="34.5" y2="54.5"/>
	
		<line fill="#FFFFFF" stroke="#000000" stroke-width="3" stroke-linecap="round" stroke-linejoin="round" stroke-miterlimit="10" x1="57.5" y1="116.5" x2="52.5" y2="116.5"/>
	
		<rect x="40.5" y="60.5" fill="#AAAAAA" stroke="#AAAAAA" stroke-width="3" stroke-linecap="round" stroke-linejoin="round" stroke-miterlimit="10" width="12" height="12"/>
	
		<rect x="57.5" y="60.5" fill="#AAAAAA" stroke="#AAAAAA" stroke-width="3" stroke-linecap="round" stroke-linejoin="round" stroke-miterlimit="10" width="12" height="12"/>
	
		<rect x="40.5" y="77.5" fill="#AAAAAA" stroke="#AAAAAA" stroke-width="3" stroke-linecap="round" stroke-linejoin="round" stroke-miterlimit="10" width="12" height="12"/>
	
		<rect x="57.5" y="77.5" fill="#00AA55" stroke="#000000" stroke-width="3" stroke-linecap="round" stroke-linejoin="round" stroke-miterlimit="10" width="12" height="12"/>
	
		<rect x="40.5" y="94.5" fill="#AAAAAA" stroke="#AAAAAA" stroke-width="3" stroke-linecap="round" stroke-linejoin="round" stroke-miterlimit="10" width="12" height="12"/>
	
		<rect x="57.5" y="94.5" fill="#AAAAAA" stroke="#AAAAAA" stroke-width="3" stroke-linecap="round" stroke-linejoin="round" stroke-miterlimit="10" width="12" height="12"/>
</g>
<g>
	<g>
		
			<path fill="#FFFFFF" stroke="#000000" stroke-width="4" stroke-linecap="round" stroke-linejoin="round" stroke-miterlimit="10" d="
			M97,116"/>
		
			<polyline fill="#FFFFFF" stroke="#000000" stroke-width="4" stroke-linecap="round" stroke-linejoin="round" stroke-miterlimit="10" points="
			159,185 104,130 95,130 85,120 85,108 68,91 68,86 70,84 75,84 92,101 101,92 109,92 124,107 124,114 158.9,148.1 		"/>
		
			<line fill="#FFFFFF" stroke="#000000" stroke-width="3" stroke-linecap="round" stroke-linejoin="round" stroke-miterlimit="10" x1="98.5" y1="95.5" x2="102.5" y2="99.5"/>
		
			<line fill="#FFFFFF" stroke="#000000" stroke-width="3" stroke-linecap="round" stroke-linejoin="round" stroke-miterlimit="10" x1="92.5" y1="101.5" x2="96.5" y2="105.5"/>
		
			<line fill="#FFFFFF" stroke="#000000" stroke-width="3" stroke-linecap="round" stroke-linejoin="round" stroke-miterlimit="10" x1="85.5" y1="108.5" x2="99.5" y2="122.5"/>
		
			<line fill="#FFFFFF" stroke="#000000" stroke-width="3" stroke-linecap="round" stroke-linejoin="round" stroke-miterlimit="10" x1="86.5" y1="101.5" x2="85.5" y2="102.5"/>
		
			<line fill="#FFFFFF" stroke="#000000" stroke-width="3" stroke-linecap="round" stroke-linejoin="round" stroke-miterlimit="10" x1="97.5" y1="113.5" x2="99.5" y2="111.5"/>
		
			<line fill="#FFFFFF" stroke="#000000" stroke-width="3" stroke-linecap="round" stroke-linejoin="round" stroke-miterlimit="10" x1="103.5" y1="107.5" x2="104.5" y2="106.5"/>
		
			<line fill="#FFFFFF" stroke="#000000" stroke-width="3" stroke-linecap="round" stroke-linejoin="round" stroke-miterlimit="10" x1="108.5" y1="102.5" x2="110.5" y2="100.5"/>
	</g>
</g>
</svg>
