#define error_url_width 109
#define error_url_height 14
static unsigned char error_url_bits[] = {
   0x00, 0x00, 0x00, 0x00, 0x00, 0x00, 0x00, 0x00, 0x00, 0x00, 0x00, 0x00,
   0x00, 0x00, 0x00, 0x00, 0x02, 0x80, 0x00, 0x00, 0x00, 0x81, 0x40, 0x00,
   0x00, 0x00, 0x00, 0x00, 0x00, 0x00, 0x02, 0x80, 0x00, 0x00, 0x00, 0x81,
   0x40, 0x00, 0x08, 0x00, 0x00, 0x00, 0x00, 0x00, 0x02, 0x80, 0x00, 0x00,
   0x00, 0x81, 0x40, 0x00, 0x00, 0x00, 0x00, 0x00, 0x00, 0x00, 0x02, 0x80,
   0x00, 0x00, 0x00, 0x81, 0x40, 0x00, 0x00, 0x00, 0x00, 0x00, 0x00, 0x00,
   0x1e, 0x8e, 0x3c, 0xd0, 0x1c, 0x8f, 0x47, 0x1c, 0x88, 0x07, 0x00, 0x00,
   0x00, 0x00, 0x22, 0x91, 0x44, 0xb0, 0x22, 0x91, 0x48, 0x22, 0x48, 0x08,
   0x00, 0x00, 0x00, 0x00, 0x22, 0x9f, 0x44, 0x10, 0x3e, 0x91, 0x48, 0x3e,
   0x48, 0x08, 0x00, 0x00, 0x00, 0x00, 0x22, 0x81, 0x44, 0x10, 0x02, 0x91,
   0x48, 0x02, 0x48, 0x08, 0x00, 0x00, 0x00, 0x00, 0x22, 0x81, 0x44, 0x12,
   0x02, 0x91, 0x48, 0x02, 0x49, 0x08, 0x00, 0x00, 0x00, 0x00, 0x22, 0x9e,
   0x3c, 0x12, 0x3c, 0x8f, 0x47, 0x3c, 0x89, 0x07, 0x00, 0x00, 0x00, 0x00,
   0x00, 0x00, 0x04, 0x00, 0x00, 0x00, 0x00, 0x00, 0x00, 0x00, 0x00, 0x00,
   0x00, 0x00, 0x00, 0x00, 0x04, 0x00, 0x00, 0x00, 0x00, 0x00, 0x00, 0x00,
   0x00, 0x00, 0x00, 0x00, 0x00, 0x00, 0x04, 0x00, 0x00, 0x00, 0x00, 0x00,
   0x00, 0x00, 0x00, 0x00 };
