#define pebble_logo_width 105
#define pebble_logo_height 24
static unsigned char pebble_logo_bits[] = {
   0x00, 0x00, 0x00, 0x00, 0x06, 0x00, 0x0c, 0x00, 0x0c, 0x00, 0x00, 0x8f,
   0x07, 0x00, 0x00, 0x00, 0x00, 0x00, 0x06, 0x00, 0x0c, 0x00, 0x0c, 0x00,
   0x80, 0xdf, 0x0f, 0x00, 0x00, 0x00, 0x00, 0x00, 0x06, 0x00, 0x0c, 0x00,
   0x0c, 0x00, 0x80, 0xd9, 0x0c, 0x00, 0x00, 0x00, 0x00, 0x00, 0x06, 0x00,
   0x0c, 0x00, 0x0c, 0x00, 0x80, 0xd9, 0x01, 0x00, 0xe0, 0x03, 0xc0, 0x03,
   0xc6, 0x07, 0x8c, 0x07, 0x0c, 0xf0, 0x80, 0x19, 0x07, 0x00, 0xf8, 0x07,
   0xf0, 0x0f, 0xe6, 0x1f, 0xec, 0x1f, 0x0c, 0xfc, 0x83, 0x19, 0x0e, 0x00,
   0x08, 0x0c, 0x18, 0x18, 0x36, 0x10, 0x3c, 0x30, 0x0c, 0x06, 0x86, 0xd9,
   0x0c, 0x00, 0x04, 0x18, 0x0c, 0x30, 0x1e, 0x20, 0x1c, 0x60, 0x0c, 0x02,
   0x8c, 0xdf, 0x0f, 0x00, 0x06, 0x30, 0x06, 0x60, 0x0e, 0x60, 0x0c, 0xc0,
   0x0c, 0x01, 0x18, 0x8f, 0x07, 0x00, 0x03, 0x20, 0x02, 0x40, 0x06, 0x40,
   0x0c, 0x80, 0x8c, 0x01, 0x10, 0x00, 0x00, 0x00, 0x03, 0x60, 0x02, 0x40,
   0x06, 0xc0, 0x0c, 0x80, 0x8d, 0x01, 0x30, 0x00, 0x00, 0x00, 0x03, 0x60,
   0xfe, 0x7f, 0x06, 0xc0, 0x0c, 0x80, 0x8d, 0xff, 0x3f, 0x00, 0x00, 0x00,
   0x03, 0x60, 0x02, 0x00, 0x06, 0xc0, 0x0c, 0x80, 0x8d, 0x01, 0x00, 0x00,
   0x00, 0x00, 0x03, 0x60, 0x02, 0x00, 0x06, 0xc0, 0x0c, 0x80, 0x8d, 0x01,
   0x00, 0x00, 0x00, 0x00, 0x03, 0x20, 0x02, 0x40, 0x06, 0x40, 0x0c, 0x80,
   0x8c, 0x01, 0x10, 0x00, 0x00, 0x00, 0x07, 0x30, 0x06, 0x60, 0x0c, 0x60,
   0x08, 0xc0, 0x0c, 0x01, 0x18, 0x00, 0x00, 0x00, 0x07, 0x18, 0x0c, 0x30,
   0x18, 0x20, 0x10, 0x60, 0x0c, 0x02, 0x0c, 0x00, 0x00, 0x00, 0x0b, 0x0c,
   0x18, 0x18, 0x30, 0x10, 0x30, 0x30, 0x1c, 0x06, 0x06, 0x00, 0x00, 0x00,
   0xfb, 0x07, 0xf0, 0x0f, 0xe0, 0x1f, 0xe0, 0x1f, 0x38, 0xfc, 0x03, 0x00,
   0x00, 0x00, 0xe3, 0x03, 0xc0, 0x03, 0xc0, 0x07, 0x80, 0x07, 0x30, 0xf0,
   0x00, 0x00, 0x00, 0x00, 0x03, 0x00, 0x00, 0x00, 0x00, 0x00, 0x00, 0x00,
   0x00, 0x00, 0x00, 0x00, 0x00, 0x00, 0x03, 0x00, 0x00, 0x00, 0x00, 0x00,
   0x00, 0x00, 0x00, 0x00, 0x00, 0x00, 0x00, 0x00, 0x03, 0x00, 0x00, 0x00,
   0x00, 0x00, 0x00, 0x00, 0x00, 0x00, 0x00, 0x00, 0x00, 0x00, 0x03, 0x00,
   0x00, 0x00, 0x00, 0x00, 0x00, 0x00, 0x00, 0x00, 0x00, 0x00, 0x00, 0x00 };