<?xml version="1.0" encoding="utf-8"?>
<!-- Generator: Adobe Illustrator 18.1.1, SVG Export Plug-In . SVG Version: 6.00 Build 0)  -->
<svg version="1.1" id="Comments" xmlns="http://www.w3.org/2000/svg" xmlns:xlink="http://www.w3.org/1999/xlink" x="0px" y="0px"
	 viewBox="0 0 80 80" enable-background="new 0 0 80 80" display="none" xml:space="preserve">
<polygon display="inline" fill="#FFFFFF" stroke="#000000" stroke-width="4" stroke-linecap="round" stroke-linejoin="round" stroke-miterlimit="10" points="
	22,11 12,21 12,57 18,63 18,76 27,67 58,67 68,57 68,21 58,11 "/>
<polygon display="inline" fill="#FFFFFF" stroke="#000000" stroke-width="3" stroke-linecap="round" stroke-linejoin="round" stroke-miterlimit="10" points="
	29.5,39.5 35.5,33.5 25.5,23.5 19.5,29.5 19.5,42.5 36.5,59.5 49.5,59.5 55.5,53.5 45.5,43.5 39.5,49.5 29.5,39.5 "/>
<line display="inline" fill="none" stroke="#000000" stroke-width="3" stroke-linecap="round" stroke-linejoin="round" stroke-miterlimit="10" x1="42.5" y1="32.5" x2="46.5" y2="36.5"/>
<polyline display="inline" fill="none" stroke="#000000" stroke-width="3" stroke-linecap="round" stroke-linejoin="round" stroke-miterlimit="10" points="
	39.5,25.5 45.5,25.5 53.5,33.5 53.5,39.5 "/>
<polyline display="inline" fill="none" stroke="#000000" stroke-width="3" stroke-linecap="round" stroke-linejoin="round" stroke-miterlimit="10" points="
	36.5,18.5 48.5,18.5 60.5,30.5 60.5,42.5 "/>
</svg>
