<?xml version="1.0" encoding="utf-8"?>
<!-- Generator: Adobe Illustrator 18.1.1, SVG Export Plug-In . SVG Version: 6.00 Build 0)  -->
<svg version="1.1" id="Comments" xmlns="http://www.w3.org/2000/svg" xmlns:xlink="http://www.w3.org/1999/xlink" x="0px" y="0px"
	 viewBox="0 0 50 50" enable-background="new 0 0 50 50" display="none" xml:space="preserve">
<polygon display="inline" fill="#FFFFFF" stroke="#000000" stroke-width="3" stroke-linecap="round" stroke-linejoin="round" stroke-miterlimit="10" points="
	42.5,45.5 46.5,41.5 46.5,35.5 43.5,32.5 30.5,32.5 24.5,26.5 15.5,26.5 10.5,31.5 5.5,31.5 1.5,35.5 1.5,41.5 5.5,45.5 42.5,45.5
	"/>
<polyline display="inline" fill="none" stroke="#000000" stroke-width="2" stroke-linecap="round" stroke-linejoin="round" stroke-miterlimit="10" points="
	12,32 19,32 22,35 "/>
<polygon display="inline" fill="#FFFFFF" stroke="#000000" stroke-width="3" stroke-linecap="round" stroke-linejoin="round" stroke-miterlimit="10" points="
	30.5,9.5 26.5,13.5 26.5,18.5 30.5,22.5 35.5,22.5 39.5,18.5 39.5,13.5 35.5,9.5 30.5,9.5 "/>
<line display="inline" fill="none" stroke="#000000" stroke-width="2" stroke-linecap="round" stroke-linejoin="round" stroke-miterlimit="10" x1="33" y1="1" x2="33" y2="5"/>
<line display="inline" fill="none" stroke="#000000" stroke-width="2" stroke-linecap="round" stroke-linejoin="round" stroke-miterlimit="10" x1="44" y1="5" x2="41" y2="8"/>
<line display="inline" fill="none" stroke="#000000" stroke-width="2" stroke-linecap="round" stroke-linejoin="round" stroke-miterlimit="10" x1="22" y1="5" x2="25" y2="8"/>
<line display="inline" fill="none" stroke="#000000" stroke-width="2" stroke-linecap="round" stroke-linejoin="round" stroke-miterlimit="10" x1="44" y1="16" x2="49" y2="16"/>
<line display="inline" fill="none" stroke="#000000" stroke-width="2" stroke-linecap="round" stroke-linejoin="round" stroke-miterlimit="10" x1="17" y1="16" x2="22" y2="16"/>
</svg>
