<?xml version="1.0" encoding="utf-8"?>
<!-- Generator: Adobe Illustrator 18.1.1, SVG Export Plug-In . SVG Version: 6.00 Build 0)  -->
<svg version="1.1" id="Comments" xmlns="http://www.w3.org/2000/svg" xmlns:xlink="http://www.w3.org/1999/xlink" x="0px" y="0px"
	 viewBox="0 0 80 80" enable-background="new 0 0 80 80" display="none" xml:space="preserve">
<polygon display="inline" fill="#FFFFFF" stroke="#000000" stroke-width="4" stroke-linecap="round" stroke-linejoin="round" stroke-miterlimit="10" points="
	59,44 64,49 64,65 53,76 29,76 18,65 18,47 29,36 50,36 54,32 54,21 50,17 28,17 24,21 24,32 28,36 29,36 20,45 12,37 12,16 23,5
	55,5 66,16 66,37 55,48 34,48 30,52 30,60 34,64 48,64 52,60 52,54 46,48 55,48 59,44 "/>
<line display="inline" fill="none" stroke="#000000" stroke-width="3" stroke-linecap="round" stroke-linejoin="round" stroke-miterlimit="10" x1="34.5" y1="43.5" x2="39.5" y2="43.5"/>
<line display="inline" fill="none" stroke="#000000" stroke-width="3" stroke-linecap="round" stroke-linejoin="round" stroke-miterlimit="10" x1="43.5" y1="40.5" x2="48.5" y2="40.5"/>
</svg>
