<?xml version="1.0" encoding="utf-8"?>
<!-- Generator: Adobe Illustrator 18.1.1, SVG Export Plug-In . SVG Version: 6.00 Build 0)  -->
<svg version="1.1" id="Comments" xmlns="http://www.w3.org/2000/svg" xmlns:xlink="http://www.w3.org/1999/xlink" x="0px" y="0px"
	 viewBox="0 0 80 80" enable-background="new 0 0 80 80" display="none" xml:space="preserve">
<polyline display="inline" fill="#FFFFFF" stroke="#000000" stroke-width="4" stroke-linecap="round" stroke-linejoin="round" stroke-miterlimit="10" points="
	48,56 3,66 34,32 "/>
<polygon display="inline" fill="#FFFFFF" stroke="#000000" stroke-width="4" stroke-linecap="round" stroke-linejoin="round" stroke-miterlimit="10" points="
	48,56 48,46 42,36 34,32 34,41 40,51 48,56 "/>
<line display="inline" fill="none" stroke="#000000" stroke-width="3" stroke-linecap="round" stroke-linejoin="round" stroke-miterlimit="10" x1="41.5" y1="55.5" x2="14.5" y2="55.5"/>
<line display="inline" fill="none" stroke="#000000" stroke-width="3" stroke-linecap="round" stroke-linejoin="round" stroke-miterlimit="10" x1="37.5" y1="47.5" x2="20.5" y2="47.5"/>
<line display="inline" fill="none" stroke="#000000" stroke-width="3" stroke-linecap="round" stroke-linejoin="round" stroke-miterlimit="10" x1="48.5" y1="10.5" x2="57.5" y2="10.5"/>
<line display="inline" fill="none" stroke="#000000" stroke-width="3" stroke-linecap="round" stroke-linejoin="round" stroke-miterlimit="10" x1="39.5" y1="25.5" x2="46.5" y2="18.5"/>
<line display="inline" fill="none" stroke="#000000" stroke-width="3" stroke-linecap="round" stroke-linejoin="round" stroke-miterlimit="10" x1="71.5" y1="22.5" x2="77.5" y2="16.5"/>
<line display="inline" fill="none" stroke="#000000" stroke-width="3" stroke-linecap="round" stroke-linejoin="round" stroke-miterlimit="10" x1="78.5" y1="43.5" x2="72.5" y2="37.5"/>
<polyline display="inline" fill="none" stroke="#000000" stroke-width="3" stroke-linecap="round" stroke-linejoin="round" stroke-miterlimit="10" points="
	53.5,48.5 57.5,52.5 63.5,46.5 68.5,51.5 73.5,46.5 "/>
<polyline display="inline" fill="none" stroke="#000000" stroke-width="3" stroke-linecap="round" stroke-linejoin="round" stroke-miterlimit="10" points="
	59.5,21.5 63.5,21.5 63.5,16.5 68.5,16.5 68.5,11.5 "/>
<polyline display="inline" fill="none" stroke="#000000" stroke-width="3" stroke-linecap="round" stroke-linejoin="round" stroke-miterlimit="10" points="
	61,38.5 65.5,38.5 65.5,32.5 70.5,32.5 70.5,28 "/>
<polygon display="inline" fill="none" stroke="#000000" stroke-width="3" stroke-linecap="round" stroke-linejoin="round" stroke-miterlimit="10" points="
	56.5,34.5 49.5,34.5 49.5,27.5 56.5,27.5 56.5,34.5 "/>
</svg>
