<?xml version="1.0" encoding="utf-8"?>
<!-- Generator: Adobe Illustrator 18.1.1, SVG Export Plug-In . SVG Version: 6.00 Build 0)  -->
<svg version="1.1" id="Comments" xmlns="http://www.w3.org/2000/svg" xmlns:xlink="http://www.w3.org/1999/xlink" x="0px" y="0px"
	 viewBox="0 0 80 80" enable-background="new 0 0 80 80" display="none" xml:space="preserve">
<polygon display="inline" fill="#FFFFFF" stroke="#000000" stroke-width="4" stroke-linecap="round" stroke-linejoin="round" stroke-miterlimit="10" points="
	20,40 32,28 50,28 62,40 62,58 50,70 32,70 20,58 "/>
<line display="inline" fill="#FFFFFF" stroke="#000000" stroke-width="3" stroke-linecap="round" stroke-linejoin="round" stroke-miterlimit="10" x1="30.5" y1="20.5" x2="48.5" y2="2.5"/>
<line display="inline" fill="#FFFFFF" stroke="#000000" stroke-width="3" stroke-linecap="round" stroke-linejoin="round" stroke-miterlimit="10" x1="39.5" y1="9.5" x2="32.5" y2="2.5"/>
<line display="inline" fill="none" stroke="#000000" stroke-width="4" stroke-linecap="round" stroke-linejoin="round" stroke-miterlimit="10" x1="55" y1="33" x2="55" y2="21"/>
<line display="inline" fill="none" stroke="#000000" stroke-width="4" stroke-linecap="round" stroke-linejoin="round" stroke-miterlimit="10" x1="27" y1="33" x2="27" y2="21"/>
<polyline display="inline" fill="none" stroke="#000000" stroke-width="3" stroke-linecap="round" stroke-linejoin="round" stroke-miterlimit="10" points="
	71.5,2.5 53.5,20.5 27.5,20.5 9.5,2.5 "/>
<line display="inline" fill="none" stroke="#000000" stroke-width="3" stroke-linecap="round" stroke-linejoin="round" stroke-miterlimit="10" x1="34.5" y1="15.5" x2="21.5" y2="2.5"/>
<polygon display="inline" fill="none" stroke="#000000" stroke-width="3" stroke-linecap="round" stroke-linejoin="round" stroke-miterlimit="10" points="
	33.5,44.5 35.5,46.5 38.5,46.5 38.5,53.5 35.5,53.5 35.5,58.5 46.5,58.5 46.5,53.5 43.5,53.5 43.5,39.5 38.5,39.5 "/>
<line display="inline" fill="none" stroke="#000000" stroke-width="3" stroke-linecap="round" stroke-linejoin="round" stroke-miterlimit="10" x1="13.5" y1="63.5" x2="7.5" y2="69.5"/>
<line display="inline" fill="none" stroke="#000000" stroke-width="3" stroke-linecap="round" stroke-linejoin="round" stroke-miterlimit="10" x1="74.5" y1="69.5" x2="68.5" y2="63.5"/>
<line display="inline" fill="none" stroke="#000000" stroke-width="3" stroke-linecap="round" stroke-linejoin="round" stroke-miterlimit="10" x1="70.5" y1="48.5" x2="76.5" y2="48.5"/>
<line display="inline" fill="none" stroke="#000000" stroke-width="3" stroke-linecap="round" stroke-linejoin="round" stroke-miterlimit="10" x1="3.5" y1="48.5" x2="9.5" y2="48.5"/>
</svg>
