<?xml version="1.0" encoding="utf-8"?>
<!-- Generator: Adobe Illustrator 18.1.1, SVG Export Plug-In . SVG Version: 6.00 Build 0)  -->
<svg version="1.1" id="Comments" xmlns="http://www.w3.org/2000/svg" xmlns:xlink="http://www.w3.org/1999/xlink" x="0px" y="0px"
	 viewBox="0 0 80 80" enable-background="new 0 0 80 80" display="none" xml:space="preserve">
<polygon display="inline" fill="#FFFFFF" stroke="#000000" stroke-width="4" stroke-linecap="round" stroke-linejoin="round" stroke-miterlimit="10" points="
	29,75 29,63 18,63 10,55 10,43 53,43 53,55 45,63 45,75 "/>
<polygon display="inline" fill="#FFFFFF" stroke="#000000" stroke-width="3" stroke-linecap="round" stroke-linejoin="round" stroke-miterlimit="10" points="
	68.5,36.5 68.5,42.5 59.5,51.5 53.5,51.5 53.5,46.5 57.5,46.5 63.5,40.5 63.5,36.5 "/>
<polygon display="inline" fill="#FFFFFF" stroke="#000000" stroke-width="4" stroke-linecap="round" stroke-linejoin="round" stroke-miterlimit="10" points="
	58,36 74,36 74,9 71,6 61,6 58,9 "/>
<line display="inline" fill="none" stroke="#000000" stroke-width="4" stroke-linecap="round" stroke-linejoin="round" stroke-miterlimit="10" x1="45" y1="75" x2="74" y2="75"/>
<line display="inline" fill="none" stroke="#000000" stroke-width="4" stroke-linecap="round" stroke-linejoin="round" stroke-miterlimit="10" x1="29" y1="75" x2="6" y2="75"/>
<line display="inline" fill="none" stroke="#000000" stroke-width="4" stroke-linecap="round" stroke-linejoin="round" stroke-miterlimit="10" x1="66" y1="6" x2="66" y2="2"/>
<line display="inline" fill="none" stroke="#000000" stroke-width="3" stroke-linecap="round" stroke-linejoin="round" stroke-miterlimit="10" x1="20.5" y1="43.5" x2="20.5" y2="51.5"/>
<line display="inline" fill="none" stroke="#000000" stroke-width="3" stroke-linecap="round" stroke-linejoin="round" stroke-miterlimit="10" x1="29.5" y1="43.5" x2="29.5" y2="49.5"/>
<line display="inline" fill="none" stroke="#000000" stroke-width="3" stroke-linecap="round" stroke-linejoin="round" stroke-miterlimit="10" x1="38.5" y1="43.5" x2="38.5" y2="56.5"/>
<line display="inline" fill="none" stroke="#000000" stroke-width="3" stroke-linecap="round" stroke-linejoin="round" stroke-miterlimit="10" x1="72.5" y1="36.5" x2="72.5" y2="43.5"/>
<line display="inline" fill="none" stroke="#000000" stroke-width="3" stroke-linecap="round" stroke-linejoin="round" stroke-miterlimit="10" x1="38.5" y1="61.5" x2="38.5" y2="63.5"/>
<line display="inline" fill="none" stroke="#000000" stroke-width="3" stroke-linecap="round" stroke-linejoin="round" stroke-miterlimit="10" x1="20.5" y1="63.5" x2="20.5" y2="67.5"/>
<line display="inline" fill="#FFFFFF" stroke="#000000" stroke-width="4" stroke-linecap="round" stroke-linejoin="round" stroke-miterlimit="10" x1="49" y1="43" x2="49" y2="40"/>
</svg>
