<?xml version="1.0" encoding="utf-8"?>
<!-- Generator: Adobe Illustrator 18.0.0, SVG Export Plug-In . SVG Version: 6.00 Build 0)  -->
<svg version="1.1" id="Comments" xmlns="http://www.w3.org/2000/svg" xmlns:xlink="http://www.w3.org/1999/xlink" x="0px" y="0px"
	 viewBox="0 0 80 80" enable-background="new 0 0 80 80" xml:space="preserve">
<polygon fill="#FFFFFF" stroke="#000000" stroke-width="3" stroke-linecap="round" stroke-linejoin="round" stroke-miterlimit="10" points="
	44.5,11.5 44.5,14.5 41.5,17.5 38.5,17.5 35.5,14.5 35.5,11.5 38.5,8.5 41.5,8.5 "/>
<polygon fill="#FFFFFF" stroke="#000000" stroke-width="4" stroke-linecap="round" stroke-linejoin="round" stroke-miterlimit="10" points="
	47,62 47,68 43,72 37,72 33,68 33,62 37,58 43,58 "/>
<polygon fill="#FFFFFF" stroke="#000000" stroke-width="4" stroke-linecap="round" stroke-linejoin="round" stroke-miterlimit="10" points="
	23,47 15,55 15,63 65,63 65,55 57,47 57,26 49,18 31,18 23,26 "/>
<line fill="none" stroke="#000000" stroke-width="3" stroke-linecap="round" stroke-linejoin="round" stroke-miterlimit="10" x1="23.5" y1="46.5" x2="33.5" y2="46.5"/>
<line fill="none" stroke="#000000" stroke-width="3" stroke-linecap="round" stroke-linejoin="round" stroke-miterlimit="10" x1="16.5" y1="54.5" x2="37.5" y2="54.5"/>
<line fill="none" stroke="#000000" stroke-width="4" stroke-linecap="round" stroke-linejoin="round" stroke-miterlimit="10" x1="17" y1="7" x2="63" y2="76"/>
</svg>
