<?xml version="1.0" encoding="utf-8"?>
<!-- Generator: Adobe Illustrator 18.1.1, SVG Export Plug-In . SVG Version: 6.00 Build 0)  -->
<svg version="1.1" id="Comments" xmlns="http://www.w3.org/2000/svg" xmlns:xlink="http://www.w3.org/1999/xlink" x="0px" y="0px"
	 viewBox="0 0 50 50" enable-background="new 0 0 50 50" display="none" xml:space="preserve">
<polygon display="inline" fill="#FFFFFF" stroke="#000000" stroke-width="3" stroke-linecap="round" stroke-linejoin="round" stroke-miterlimit="10" points="
	47.5,21.5 4.5,21.5 4.5,9.5 11.5,9.5 17.5,3.5 32.5,3.5 38.5,9.5 47.5,9.5 "/>
<polygon display="inline" fill="#FFFFFF" stroke="#000000" stroke-width="3" stroke-linecap="round" stroke-linejoin="round" stroke-miterlimit="10" points="
	13.5,16.5 10.5,19.5 10.5,23.5 13.5,26.5 17.5,26.5 20.5,23.5 20.5,19.5 17.5,16.5 "/>
<polygon display="inline" fill="#FFFFFF" stroke="#000000" stroke-width="3" stroke-linecap="round" stroke-linejoin="round" stroke-miterlimit="10" points="
	34.5,16.5 31.5,19.5 31.5,23.5 34.5,26.5 38.5,26.5 41.5,23.5 41.5,19.5 38.5,16.5 "/>
<polyline display="inline" fill="none" stroke="#000000" stroke-width="3" stroke-linecap="round" stroke-linejoin="round" stroke-miterlimit="10" points="
	1.5,46.5 7.5,40.5 15.5,48.5 23.5,40.5 31.5,48.5 39.5,40.5 47.5,48.5 "/>
<polyline display="inline" fill="none" stroke="#000000" stroke-width="3" stroke-linecap="round" stroke-linejoin="round" stroke-miterlimit="10" points="
	15.5,46.5 15.5,31.5 1.5,31.5 "/>
</svg>
