<?xml version="1.0" encoding="utf-8"?>
<!-- Generator: Adobe Illustrator 18.1.1, SVG Export Plug-In . SVG Version: 6.00 Build 0)  -->
<svg version="1.1" id="Comments" xmlns="http://www.w3.org/2000/svg" xmlns:xlink="http://www.w3.org/1999/xlink" x="0px" y="0px"
	 viewBox="0 0 50 50" enable-background="new 0 0 50 50" display="none" xml:space="preserve">
<polygon display="inline" fill="#FFFFFF" stroke="#000000" stroke-width="3" stroke-linecap="round" stroke-linejoin="round" stroke-miterlimit="10" points="
	36.5,25.5 40.5,29.5 40.5,40.5 33.5,47.5 17.5,47.5 10.5,40.5 10.5,29.5 18.5,21.5 29.5,21.5 32.5,18.5 32.5,12.5 29.5,9.5
	17.5,9.5 14.5,12.5 14.5,18.5 17.5,21.5 18.5,21.5 12.5,27.5 6.5,21.5 6.5,9.5 13.5,2.5 33.5,2.5 40.5,9.5 40.5,21.5 32.5,29.5
	21.5,29.5 18.5,32.5 18.5,36.5 21.5,39.5 30.5,39.5 33.5,36.5 33.5,32.5 30.5,29.5 32.5,29.5 36.5,25.5 "/>
<line display="inline" fill="none" stroke="#000000" stroke-width="2" stroke-linecap="round" stroke-linejoin="round" stroke-miterlimit="10" x1="21" y1="26" x2="24" y2="26"/>
<line display="inline" fill="none" stroke="#000000" stroke-width="2" stroke-linecap="round" stroke-linejoin="round" stroke-miterlimit="10" x1="27" y1="25" x2="30" y2="25"/>
</svg>
