<?xml version="1.0" encoding="utf-8"?>
<!-- Generator: Adobe Illustrator 18.1.1, SVG Export Plug-In . SVG Version: 6.00 Build 0)  -->
<svg version="1.1" id="Comments" xmlns="http://www.w3.org/2000/svg" xmlns:xlink="http://www.w3.org/1999/xlink" x="0px" y="0px"
	 viewBox="0 0 80 80" enable-background="new 0 0 80 80" display="none" xml:space="preserve">
<polygon display="inline" fill="#FFFFFF" stroke="#000000" stroke-width="4" stroke-linecap="square" stroke-linejoin="round" stroke-miterlimit="10" points="
	18,65 62,65 63,58 70,48 63,38 61,27 50,25 40,18 30,25 19,27 17,38 10,48 17,58 "/>
<line display="inline" fill="none" stroke="#000000" stroke-width="4" stroke-linecap="round" stroke-linejoin="round" stroke-miterlimit="10" x1="26" y1="39" x2="26" y2="46"/>
<line display="inline" fill="none" stroke="#000000" stroke-width="4" stroke-linecap="round" stroke-linejoin="round" stroke-miterlimit="10" x1="47" y1="39" x2="47" y2="46"/>
<polyline display="inline" fill="none" stroke="#000000" stroke-width="4" stroke-linecap="round" stroke-linejoin="round" stroke-miterlimit="10" points="
	26,55 36,58 47,55 "/>
<line display="inline" fill="none" stroke="#000000" stroke-width="4" stroke-linecap="round" stroke-linejoin="round" stroke-miterlimit="10" x1="7" y1="65" x2="72" y2="65"/>
<line display="inline" fill="none" stroke="#000000" stroke-width="4" stroke-linecap="round" stroke-linejoin="round" stroke-miterlimit="10" x1="4" y1="48" x2="2" y2="48"/>
<line display="inline" fill="none" stroke="#000000" stroke-width="4" stroke-linecap="round" stroke-linejoin="round" stroke-miterlimit="10" x1="78" y1="48" x2="76" y2="48"/>
<line display="inline" fill="none" stroke="#000000" stroke-width="4" stroke-linecap="round" stroke-linejoin="round" stroke-miterlimit="10" x1="40" y1="12" x2="40" y2="6"/>
<line display="inline" fill="none" stroke="#000000" stroke-width="4" stroke-linecap="round" stroke-linejoin="round" stroke-miterlimit="10" x1="66" y1="22" x2="69" y2="19"/>
<line display="inline" fill="none" stroke="#000000" stroke-width="4" stroke-linecap="round" stroke-linejoin="round" stroke-miterlimit="10" x1="14" y1="22" x2="11" y2="19"/>
</svg>
