<?xml version="1.0" encoding="utf-8"?>
<!-- Generator: Adobe Illustrator 18.1.1, SVG Export Plug-In . SVG Version: 6.00 Build 0)  -->
<svg version="1.1" id="Comments" xmlns="http://www.w3.org/2000/svg" xmlns:xlink="http://www.w3.org/1999/xlink" x="0px" y="0px"
	 viewBox="0 0 80 80" enable-background="new 0 0 80 80" display="none" xml:space="preserve">
<polygon display="inline" fill="#FFFFFF" stroke="#000000" stroke-width="4" stroke-linecap="round" stroke-linejoin="round" stroke-miterlimit="10" points="
	3,53 7,57 11,53 11,48 12,47 20,56 25,56 25,51 17,42.5 23,36 23,31 18,31 12,38 11,37 11,26 7,22 3,26 "/>
<polygon display="inline" fill="#FFFFFF" stroke="#000000" stroke-width="4" stroke-linecap="round" stroke-linejoin="round" stroke-miterlimit="10" points="
	44,53 48,57 52,53 52,48 53,47 61,56 66,56 66,51 58,42.5 64,36 64,31 59,31 53,38 52,37 52,26 48,22 44,26 "/>
<path display="inline" fill="#FFFFFF" stroke="#000000" stroke-width="4" stroke-linecap="round" stroke-linejoin="round" stroke-miterlimit="10" d="
	M38,53V34c0,0-4-4-4-4l-4,4v19l4,4C34,57,38,53,38,53z"/>
<polygon display="inline" fill="#FFFFFF" stroke="#000000" stroke-width="4" stroke-linecap="round" stroke-linejoin="round" stroke-miterlimit="10" points="
	73,37 69,40 69,44 73,47 77,44 77,40 "/>
</svg>
