<?xml version="1.0" encoding="utf-8"?>
<!-- Generator: Adobe Illustrator 18.1.1, SVG Export Plug-In . SVG Version: 6.00 Build 0)  -->
<svg version="1.1" id="Comments" xmlns="http://www.w3.org/2000/svg" xmlns:xlink="http://www.w3.org/1999/xlink" x="0px" y="0px"
	 viewBox="0 0 80 80" enable-background="new 0 0 80 80" display="none" xml:space="preserve">
<line display="inline" fill="none" stroke="#000000" stroke-width="3" stroke-linecap="round" stroke-linejoin="round" stroke-miterlimit="10" x1="22.5" y1="9.5" x2="9.5" y2="9.5"/>
<line display="inline" fill="none" stroke="#000000" stroke-width="3" stroke-linecap="round" stroke-linejoin="round" stroke-miterlimit="10" x1="14.5" y1="17.5" x2="2.5" y2="17.5"/>
<line display="inline" fill="none" stroke="#000000" stroke-width="3" stroke-linecap="round" stroke-linejoin="round" stroke-miterlimit="10" x1="7.5" y1="25.5" x2="15.5" y2="25.5"/>
<polyline display="inline" fill="none" stroke="#000000" stroke-width="3" stroke-linecap="round" stroke-linejoin="round" stroke-miterlimit="10" points="
	11.5,72.5 19.5,68.5 27.5,72.5 35.5,68.5 43.5,72.5 51.5,68.5 59.5,72.5 67.5,68.5 "/>
<polyline display="inline" fill="none" stroke="#000000" stroke-width="4" stroke-linecap="round" stroke-linejoin="round" stroke-miterlimit="10" points="
	28,71 35,43 2,43 "/>
<g display="inline">

		<polygon fill="#FFFFFF" stroke="#000000" stroke-width="4" stroke-linecap="round" stroke-linejoin="round" stroke-miterlimit="10" points="
		76,31 22,31 22,16 30,14 35,9 56,9 64,17 76,20 	"/>

		<polygon fill="#FFFFFF" stroke="#000000" stroke-width="3" stroke-linecap="round" stroke-linejoin="round" stroke-miterlimit="10" points="
		59.5,25.5 56.5,28.5 56.5,33.5 59.5,36.5 64.5,36.5 67.5,33.5 67.5,28.5 64.5,25.5 59.5,25.5 	"/>

		<polygon fill="#FFFFFF" stroke="#000000" stroke-width="3" stroke-linecap="round" stroke-linejoin="round" stroke-miterlimit="10" points="
		31.5,25.5 28.5,28.5 28.5,33.5 31.5,36.5 36.5,36.5 39.5,33.5 39.5,28.5 36.5,25.5 31.5,25.5 	"/>
</g>
</svg>
