<?xml version="1.0" encoding="utf-8"?>
<!-- Generator: Adobe Illustrator 19.2.0, SVG Export Plug-In . SVG Version: 6.00 Build 0)  -->
<svg version="1.2" baseProfile="tiny" id="Layer_1" xmlns="http://www.w3.org/2000/svg" xmlns:xlink="http://www.w3.org/1999/xlink"
	 x="0px" y="0px" viewBox="0 0 80 80" xml:space="preserve">
<polygon fill="#FFFFFF" stroke="#010101" stroke-width="4" stroke-linecap="round" stroke-linejoin="round" stroke-miterlimit="10" points="
	1685,71 1677,63 1677,17 1685,9 1731,9 1739,17 1739,63 1731,71 "/>
<polygon fill="none" stroke="#010101" stroke-width="4" stroke-linecap="round" stroke-linejoin="round" stroke-miterlimit="10" points="
	1687,48 1687,57 1691,61 1724,61 1728,57 1728,48 1724,44 1691,44 "/>
<line fill="none" stroke="#010101" stroke-width="3" stroke-linecap="round" stroke-linejoin="round" stroke-miterlimit="10" x1="1697.5" y1="44.5" x2="1697.5" y2="60.5"/>
<line fill="none" stroke="#010101" stroke-width="3" stroke-linecap="round" stroke-linejoin="round" stroke-miterlimit="10" x1="1717.5" y1="44.5" x2="1717.5" y2="60.5"/>
<line fill="none" stroke="#010101" stroke-width="3" stroke-linecap="round" stroke-linejoin="round" stroke-miterlimit="10" x1="1707.5" y1="44.5" x2="1707.5" y2="60.5"/>
<polyline fill="none" stroke="#010101" stroke-width="3" stroke-linecap="round" stroke-linejoin="round" stroke-miterlimit="10" points="
	1717.5,32.5 1722.5,27.5 1727.5,32.5 "/>
<polyline fill="none" stroke="#010101" stroke-width="3" stroke-linecap="round" stroke-linejoin="round" stroke-miterlimit="10" points="
	1688.5,32.5 1693.5,27.5 1698.5,32.5 "/>
<g>
	
		<polygon fill="#FFFFFF" stroke="#010101" stroke-width="4" stroke-linecap="round" stroke-linejoin="round" stroke-miterlimit="10" points="
		17,71 9,63 9,17 17,9 63,9 71,17 71,63 63,71 	"/>
	
		<polygon fill="none" stroke="#010101" stroke-width="4" stroke-linecap="round" stroke-linejoin="round" stroke-miterlimit="10" points="
		19,48 19,57 23,61 56,61 60,57 60,48 56,44 23,44 	"/>
	
		<line fill="none" stroke="#010101" stroke-width="3" stroke-linecap="round" stroke-linejoin="round" stroke-miterlimit="10" x1="29.5" y1="44.5" x2="29.5" y2="60.5"/>
	
		<line fill="none" stroke="#010101" stroke-width="3" stroke-linecap="round" stroke-linejoin="round" stroke-miterlimit="10" x1="49.5" y1="44.5" x2="49.5" y2="60.5"/>
	
		<line fill="none" stroke="#010101" stroke-width="3" stroke-linecap="round" stroke-linejoin="round" stroke-miterlimit="10" x1="39.5" y1="44.5" x2="39.5" y2="60.5"/>
	
		<polyline fill="none" stroke="#010101" stroke-width="3" stroke-linecap="round" stroke-linejoin="round" stroke-miterlimit="10" points="
		49.5,32.5 54.5,27.5 59.5,32.5 	"/>
	
		<polyline fill="none" stroke="#010101" stroke-width="3" stroke-linecap="round" stroke-linejoin="round" stroke-miterlimit="10" points="
		20.5,32.5 25.5,27.5 30.5,32.5 	"/>
</g>
</svg>
