<?xml version="1.0" encoding="utf-8"?>
<!-- Generator: Adobe Illustrator 19.2.1, SVG Export Plug-In . SVG Version: 6.00 Build 0)  -->
<svg version="1.2" baseProfile="tiny" id="Comments"
	 xmlns="http://www.w3.org/2000/svg" xmlns:xlink="http://www.w3.org/1999/xlink" x="0px" y="0px" viewBox="0 0 25 25"
	 xml:space="preserve">
<path fill="#FFFFFF" d="M20,6l-1-3l-3,1l-1-3l-3,1l1,3L7,7L6,4L3,5l1,3L1,9l1,3l3-1l2,6l-3,1l1,3l3-1l1,3l3-1l-1-3l6-2l1,3l3-1l-1-3
	l3-1l-1-3l-3,1l-2.1-6.3l-3,1L16,14l-6,2l-2-6L20,6z"/>
<path fill="none" stroke="#000000" stroke-width="2" stroke-miterlimit="10" d="M23,15l-1-3l-3,1l-2-6l3-1l-1-3l-3,1l-1-3l-3,1l1,3
	L7,7L6,4L3,5l1,3L1,9l1,3l3-1l2,6l-3,1l1,3l3-1l1,3l3-1l-1-3l6-2l1,3l3-1l-1-3L23,15z"/>
<polyline fill="none" stroke="#000000" stroke-width="2" stroke-miterlimit="10" points="16,14 10,16 8,10 14,8 16,14 "/>
</svg>
