<?xml version="1.0" encoding="utf-8"?>
<!-- Generator: Adobe Illustrator 19.2.1, SVG Export Plug-In . SVG Version: 6.00 Build 0)  -->
<svg version="1.2" baseProfile="tiny" id="Comments"
	 xmlns="http://www.w3.org/2000/svg" xmlns:xlink="http://www.w3.org/1999/xlink" x="0px" y="0px" viewBox="0 0 80 80"
	 xml:space="preserve">
<polygon fill="#FFFFFF" points="73,50 69,40 64,42 54.3,17.8 44.3,21.8 54,46 34,54 26,34 61,20 57,10 52,12 50,7 40,11 42,16 
	22,24 20,19 10,23 12,28 7,30 11,40 16,38 24,58 19,60 23,70 28,68 30,73 40,69 38,64 58,56 60,61 70,57 68,52 "/>
<path fill="none" stroke="#000000" stroke-width="4" stroke-miterlimit="10" d="M69,40l-5,2l-8-20l5-2l-4-10l-5,2l-2-5l-10,4l2,5
	l-20,8l-2-5l-10,4l2,5l-5,2l4,10l5-2l8,20l-5,2l4,10l5-2l2,5l10-4l-2-5l20-8l2,5l10-4l-2-5l5-2L69,40z"/>
<polyline fill="none" stroke="#000000" stroke-width="4" stroke-miterlimit="10" points="54,46 34,54 26,34 46,26 54,46 "/>
</svg>
