<?xml version="1.0" encoding="utf-8"?>
<!-- Generator: Adobe Illustrator 19.2.1, SVG Export Plug-In . SVG Version: 6.00 Build 0)  -->
<svg version="1.2" baseProfile="tiny" id="Comments"
	 xmlns="http://www.w3.org/2000/svg" xmlns:xlink="http://www.w3.org/1999/xlink" x="0px" y="0px" viewBox="0 0 80 80"
	 xml:space="preserve">
<polygon fill="#FFFFFF" stroke="#000000" stroke-width="4" stroke-linecap="round" stroke-linejoin="round" stroke-miterlimit="10" points="
	17,69 12,64 12,16 17,11 65,11 70,16 70,64 65,69 "/>
<line fill="none" stroke="#000000" stroke-width="4" stroke-linecap="round" stroke-linejoin="round" stroke-miterlimit="10" x1="67" y1="14" x2="15" y2="66"/>
<line fill="none" stroke="#000000" stroke-width="4" stroke-linecap="round" stroke-linejoin="round" stroke-miterlimit="10" x1="67" y1="66" x2="41" y2="40"/>
<polygon fill="#FFFFFF" stroke="#000000" stroke-width="3" stroke-linecap="round" stroke-linejoin="round" stroke-miterlimit="10" points="
	49.5,22.5 49.5,10.5 57.5,2.5 69.5,2.5 77.5,10.5 77.5,22.5 69.5,30.5 63.5,48.5 57.5,30.5 "/>
<polyline fill="#FFFFFF" stroke="#000000" stroke-width="4" stroke-linecap="round" stroke-linejoin="round" stroke-miterlimit="10" points="
	32,21 30,19 25,19 20,24 20,29 25,34 30,34 35,29 35,26 30,26 "/>
<polyline fill="#FFFFFF" stroke="#000000" stroke-width="3" stroke-linecap="round" stroke-linejoin="round" stroke-miterlimit="10" points="
	63.5,11.5 68.5,16.5 63.5,21.5 58.5,16.5 63.5,11.5 "/>
</svg>
