<?xml version="1.0" encoding="utf-8"?>
<!-- Generator: Adobe Illustrator 19.2.0, SVG Export Plug-In . SVG Version: 6.00 Build 0)  -->
<svg version="1.2" baseProfile="tiny" id="Layer_1" xmlns="http://www.w3.org/2000/svg" xmlns:xlink="http://www.w3.org/1999/xlink"
	 x="0px" y="0px" viewBox="0 0 80 80" xml:space="preserve">
<g>
	
		<polygon fill="#FFFFFF" stroke="#010101" stroke-width="4" stroke-linecap="round" stroke-linejoin="round" stroke-miterlimit="10" points="
		17,71 9,63 9,17 17,9 63,9 71,17 71,63 63,71 	"/>
	
		<polyline fill="none" stroke="#010101" stroke-width="3" stroke-linecap="round" stroke-linejoin="round" stroke-miterlimit="10" points="
		69.5,54.5 63.5,54.5 58.5,49.5 58.5,43.5 63.5,38.5 69.5,38.5 	"/>
	
		<polyline fill="none" stroke="#010101" stroke-width="3" stroke-linecap="round" stroke-linejoin="round" stroke-miterlimit="10" points="
		10.5,38.5 16.5,38.5 21.5,43.5 21.5,49.5 16.5,54.5 10.5,54.5 	"/>
	
		<polyline fill="none" stroke="#010101" stroke-width="4" stroke-linecap="round" stroke-linejoin="round" stroke-miterlimit="10" points="
		50,53 45,58 35,58 30,53 	"/>
	
		<polyline fill="none" stroke="#010101" stroke-width="3" stroke-linecap="round" stroke-linejoin="round" stroke-miterlimit="10" points="
		49.5,32.5 54.5,27.5 59.5,32.5 	"/>
	
		<polyline fill="none" stroke="#010101" stroke-width="3" stroke-linecap="round" stroke-linejoin="round" stroke-miterlimit="10" points="
		20.5,32.5 25.5,27.5 30.5,32.5 	"/>
</g>
</svg>
