<?xml version="1.0" encoding="utf-8"?>
<!-- Generator: Adobe Illustrator 19.2.1, SVG Export Plug-In . SVG Version: 6.00 Build 0)  -->
<svg version="1.2" baseProfile="tiny" id="Comments"
	 xmlns="http://www.w3.org/2000/svg" xmlns:xlink="http://www.w3.org/1999/xlink" x="0px" y="0px" viewBox="0 0 50 50"
	 xml:space="preserve">
<polygon fill="#FFFFFF" stroke="#000000" stroke-width="3" stroke-linecap="round" stroke-linejoin="round" stroke-miterlimit="10" points="
	11.5,44.5 6.5,39.5 6.5,11.5 11.5,6.5 38.5,6.5 43.5,11.5 43.5,39.5 38.5,44.5 "/>
<line fill="none" stroke="#000000" stroke-width="2" stroke-linecap="round" stroke-linejoin="round" stroke-miterlimit="10" x1="35" y1="19" x2="11" y2="43"/>
<line fill="none" stroke="#000000" stroke-width="2" stroke-linecap="round" stroke-linejoin="round" stroke-miterlimit="10" x1="39" y1="44" x2="25" y2="30"/>
<polygon fill="#FFFFFF" stroke="#000000" stroke-width="2" stroke-linecap="round" stroke-linejoin="round" stroke-miterlimit="10" points="
	31,15 31,7 35,3 43,3 47,7 47,15 43,19 39,31 35,19 "/>
<polyline fill="#FFFFFF" stroke="#000000" stroke-width="3" stroke-linecap="round" stroke-linejoin="round" stroke-miterlimit="10" points="
	19.5,12.5 15.5,12.5 12.5,15.5 12.5,20.5 15.5,23.5 19.5,23.5 22.5,20.5 22.5,17.5 18.5,17.5 "/>
<rect x="38.5" y="10.5" width="1" height="1" fill="#FFFFFF" stroke="#000000" stroke-width="1"/>
</svg>
