<?xml version="1.0" encoding="utf-8"?>
<!-- Generator: Adobe Illustrator 19.2.1, SVG Export Plug-In . SVG Version: 6.00 Build 0)  -->
<svg version="1.2" baseProfile="tiny" id="Comments"
	 xmlns="http://www.w3.org/2000/svg" xmlns:xlink="http://www.w3.org/1999/xlink" x="0px" y="0px" viewBox="0 0 80 80"
	 xml:space="preserve">
<g>
	<polygon fill="#FFFFFF" points="64,30 64,22 58,16 50,16 40.8,35 42,35 45,38 45,42 42,45 38,45 35,42 35,38 38,35 42,35 51.1,16 
		50,16 44,10 36,10 30,16 22,16 16,22 16,30 10,36 10,44 16,50 16,58 22,64 30,64 36,70 44,70 50,64 58,64 64,58 64,50 70,44 70,36 
			"/>
</g>
<path fill="none" stroke="#000000" stroke-width="4" stroke-miterlimit="10" d="M64,30v-8l-6-6h-8l-6-6h-8l-6,6h-8l-6,6v8l-6,6v8
	l6,6v8l6,6h8l6,6h8l6-6h8l6-6v-8l6-6v-8L64,30z"/>
<line fill="none" stroke="#000000" stroke-width="3" stroke-miterlimit="10" x1="37.5" y1="33.5" x2="30.5" y2="17.5"/>
<line fill="none" stroke="#000000" stroke-width="3" stroke-miterlimit="10" x1="42.5" y1="33.5" x2="49.5" y2="17.5"/>
<line fill="none" stroke="#000000" stroke-width="3" stroke-miterlimit="10" x1="46.5" y1="37.5" x2="62.5" y2="30.5"/>
<line fill="none" stroke="#000000" stroke-width="3" stroke-miterlimit="10" x1="46.5" y1="42.5" x2="62.5" y2="49.5"/>
<line fill="none" stroke="#000000" stroke-width="3" stroke-miterlimit="10" x1="42.5" y1="46.5" x2="49.5" y2="62.5"/>
<line fill="none" stroke="#000000" stroke-width="3" stroke-miterlimit="10" x1="37.5" y1="46.5" x2="30.5" y2="62.5"/>
<line fill="none" stroke="#000000" stroke-width="3" stroke-miterlimit="10" x1="33.5" y1="42.5" x2="17.5" y2="49.5"/>
<line fill="none" stroke="#000000" stroke-width="3" stroke-miterlimit="10" x1="33.5" y1="37.5" x2="17.5" y2="30.5"/>
<polygon fill="none" stroke="#000000" stroke-width="4" stroke-miterlimit="10" points="45,42 42,45 38,45 35,42 35,38 38,35 42,35 
	45,38 "/>
</svg>
