<?xml version="1.0" encoding="utf-8"?>
<!-- Generator: Adobe Illustrator 19.2.0, SVG Export Plug-In . SVG Version: 6.00 Build 0)  -->
<svg version="1.2" baseProfile="tiny" id="Layer_1" xmlns="http://www.w3.org/2000/svg" xmlns:xlink="http://www.w3.org/1999/xlink"
	 x="0px" y="0px" viewBox="0 0 80 80" xml:space="preserve">
<polygon fill="#FFFFFF" stroke="#010101" stroke-width="4" stroke-linecap="round" stroke-linejoin="round" stroke-miterlimit="10" points="
	1685,71 1677,63 1677,17 1685,9 1731,9 1739,17 1739,63 1731,71 "/>
<polygon fill="none" stroke="#010101" stroke-width="4" stroke-linecap="round" stroke-linejoin="round" stroke-miterlimit="10" points="
	1687,48 1687,57 1691,61 1724,61 1728,57 1728,48 1724,44 1691,44 "/>
<line fill="none" stroke="#010101" stroke-width="3" stroke-linecap="round" stroke-linejoin="round" stroke-miterlimit="10" x1="1697.5" y1="44.5" x2="1697.5" y2="60.5"/>
<line fill="none" stroke="#010101" stroke-width="3" stroke-linecap="round" stroke-linejoin="round" stroke-miterlimit="10" x1="1717.5" y1="44.5" x2="1717.5" y2="60.5"/>
<line fill="none" stroke="#010101" stroke-width="3" stroke-linecap="round" stroke-linejoin="round" stroke-miterlimit="10" x1="1707.5" y1="44.5" x2="1707.5" y2="60.5"/>
<polyline fill="none" stroke="#010101" stroke-width="3" stroke-linecap="round" stroke-linejoin="round" stroke-miterlimit="10" points="
	1717.5,32.5 1722.5,27.5 1727.5,32.5 "/>
<polyline fill="none" stroke="#010101" stroke-width="3" stroke-linecap="round" stroke-linejoin="round" stroke-miterlimit="10" points="
	1688.5,32.5 1693.5,27.5 1698.5,32.5 "/>
<g>
	
		<path fill="#FFFFFF" stroke="#010101" stroke-width="4" stroke-linecap="round" stroke-linejoin="round" stroke-miterlimit="10" d="
		M63,9H17l-8,8v46l8,8h46l8-8V17L63,9z"/>
	
		<polyline fill="none" stroke="#010101" stroke-width="3" stroke-linecap="round" stroke-linejoin="round" stroke-miterlimit="10" points="
		46.5,34.5 51.5,29.5 56.5,34.5 	"/>
	
		<line fill="none" stroke="#010101" stroke-width="3" stroke-linecap="round" stroke-linejoin="round" stroke-miterlimit="10" x1="31.5" y1="32.5" x2="25.5" y2="32.5"/>
</g>
<polygon fill="#FFFFFF" stroke="#010101" stroke-width="4" stroke-linecap="round" stroke-linejoin="round" stroke-miterlimit="10" points="
	56,51 51,56 29,56 24,51 24,47 56,47 "/>
<polygon fill="#FFFFFF" stroke="#010101" stroke-width="3" stroke-linecap="round" stroke-linejoin="round" stroke-miterlimit="10" points="
	31.5,47.5 31.5,62.5 35.5,66.5 44.5,66.5 48.5,62.5 48.5,47.5 "/>
<line fill="none" stroke="#010101" stroke-width="4" stroke-linecap="round" stroke-linejoin="round" stroke-miterlimit="10" x1="40" y1="47.5" x2="40" y2="57"/>
</svg>
