<?xml version="1.0" encoding="utf-8"?>
<!-- Generator: Adobe Illustrator 19.2.0, SVG Export Plug-In . SVG Version: 6.00 Build 0)  -->
<svg version="1.2" baseProfile="tiny" id="Layer_1" xmlns="http://www.w3.org/2000/svg" xmlns:xlink="http://www.w3.org/1999/xlink"
	 x="0px" y="0px" viewBox="0 0 80 80" xml:space="preserve">
<g>
	
		<path fill="#FFFFFF" stroke="#010101" stroke-width="4" stroke-linecap="round" stroke-linejoin="round" stroke-miterlimit="10" d="
		M63.5,9h-46l-8,8v46l8,8h46l8-8V17L63.5,9z"/>
	
		<polyline fill="none" stroke="#010101" stroke-width="3" stroke-linecap="round" stroke-linejoin="round" stroke-miterlimit="10" points="
		45,32.5 49,28.5 55,28.5 	"/>
	
		<polyline fill="none" stroke="#010101" stroke-width="3" stroke-linecap="round" stroke-linejoin="round" stroke-miterlimit="10" points="
		35,32.5 31,28.5 25,28.5 	"/>
	
		<polygon fill="#FFFFFF" stroke="#010101" stroke-width="4" stroke-linecap="round" stroke-linejoin="round" stroke-miterlimit="10" points="
		20.5,31 9.5,42 4.5,42 -0.5,37 5.5,31 	"/>
	
		<polygon fill="#FFFFFF" stroke="#010101" stroke-width="4" stroke-linecap="round" stroke-linejoin="round" stroke-miterlimit="10" points="
		59.5,31 70.5,42 75.5,42 80.5,37 74.5,31 	"/>
</g>
<polygon fill="none" stroke="#010101" stroke-width="4" stroke-linecap="round" stroke-linejoin="round" stroke-miterlimit="10" points="
	60.5,53 51.5,62 29.5,62 20.5,53 20.5,43 60.5,43 "/>
</svg>
