<?xml version="1.0" encoding="utf-8"?>
<!-- Generator: Adobe Illustrator 19.2.0, SVG Export Plug-In . SVG Version: 6.00 Build 0)  -->
<svg version="1.2" baseProfile="tiny" id="Layer_1" xmlns="http://www.w3.org/2000/svg" xmlns:xlink="http://www.w3.org/1999/xlink"
	 x="0px" y="0px" viewBox="0 0 80 80" xml:space="preserve">
<g>
	
		<polygon fill="#FFFFFF" stroke="#010101" stroke-width="4" stroke-linecap="round" stroke-linejoin="round" stroke-miterlimit="10" points="
		15.5,71 7,63 7,17 15.5,9 61.5,9 69,17 69,63 61.5,71 	"/>
	
		<polyline fill="none" stroke="#010101" stroke-width="3" stroke-linecap="round" stroke-linejoin="round" stroke-miterlimit="10" points="
		52,35.5 47,30.5 52,25.5 	"/>
	
		<polyline fill="none" stroke="#010101" stroke-width="3" stroke-linecap="round" stroke-linejoin="round" stroke-miterlimit="10" points="
		28,26.5 28,30 28,33.5 	"/>
	
		<polyline fill="none" stroke="#010101" stroke-width="3" stroke-linecap="round" stroke-linejoin="round" stroke-miterlimit="10" points="
		38,44.5 41,44.5 45,48.5 42,51.5 45,54.5 41,58.5 38,58.5 	"/>
	
		<polygon fill="#FFFFFF" stroke="#010101" stroke-width="4" stroke-linecap="round" stroke-linejoin="round" stroke-miterlimit="10" points="
		52.5,50 62.5,60 72.5,50 72.5,45 67.5,40 62.5,45 57.5,40 52.5,45 	"/>
	
		<line fill="none" stroke="#010101" stroke-width="3" stroke-linecap="round" stroke-linejoin="round" stroke-miterlimit="10" x1="42" y1="51.5" x2="40" y2="51.5"/>
</g>
</svg>
