<?xml version="1.0" encoding="utf-8"?>
<!-- Generator: Adobe Illustrator 19.2.1, SVG Export Plug-In . SVG Version: 6.00 Build 0)  -->
<svg version="1.2" baseProfile="tiny" id="Comments"
	 xmlns="http://www.w3.org/2000/svg" xmlns:xlink="http://www.w3.org/1999/xlink" x="0px" y="0px" viewBox="0 0 25 25"
	 xml:space="preserve">
<polyline fill="none" stroke="#000000" stroke-width="2" stroke-miterlimit="10" points="24,20 20,24 5,24 1,20 "/>
<polygon fill="#FFFFFF" points="18,15 18,4 15,1 9,1 6,4 6,5 12,5 14,7 14,16 13,17 10,17 9,16 9,14 10,13 16,13 16,9 8,9 5,12 
	5,18 8,21 14,21 16,19 18,21 21,18 "/>
<path fill="none" stroke="#000000" stroke-width="2" stroke-miterlimit="10" d="M18,15V4l-3-3H9L6,4v1h6l2,2v2H8l-3,3v6l3,3h6l2-2
	l2,2l3-3L18,15z"/>
<polygon fill="none" stroke="#000000" stroke-width="2" stroke-miterlimit="10" points="14,16 13,17 10,17 9,16 9,14 10,13 14,13 
	"/>
</svg>
