#define pebble_logo_width 105
#define pebble_logo_height 27
static const unsigned char pebble_logo_bits[] = {
  0x00, 0x00, 0x00, 0x00, 0x00, 0x60, 0x00, 0x00, 0x03, 0x00, 0x18, 0x00,
  0x00, 0x00, 0x00, 0x00, 0x00, 0x00, 0x00, 0x60, 0x00, 0x00, 0x03, 0x00,
  0x18, 0x00, 0x00, 0x00, 0x00, 0x00, 0x00, 0x00, 0x00, 0x60, 0x00, 0x00,
  0x03, 0x00, 0x18, 0x00, 0x00, 0x00, 0x00, 0x00, 0x00, 0x00, 0x00, 0x60,
  0x00, 0x00, 0x03, 0x00, 0x18, 0x00, 0x00, 0x00, 0x00, 0x00, 0x00, 0x00,
  0x00, 0x60, 0x00, 0x00, 0x03, 0x00, 0x18, 0x00, 0x00, 0x00, 0x00, 0xE0,
  0x03, 0x00, 0x1F, 0x60, 0xF8, 0x00, 0xC3, 0x07, 0x18, 0xC0, 0x07, 0x00,
  0x00, 0xF8, 0x0F, 0xC0, 0x7F, 0x60, 0xFE, 0x03, 0xF3, 0x1F, 0x18, 0xF0,
  0x1F, 0x00, 0x00, 0x0C, 0x18, 0x60, 0xC0, 0x60, 0x03, 0x06, 0x1B, 0x30,
  0x18, 0x18, 0x30, 0x00, 0x00, 0x06, 0x30, 0x30, 0x80, 0xE1, 0x01, 0x0C,
  0x0F, 0x60, 0x18, 0x0C, 0x60, 0x00, 0x00, 0x03, 0x60, 0x18, 0x00, 0xE3,
  0x00, 0x18, 0x07, 0xC0, 0x18, 0x06, 0xC0, 0x00, 0x80, 0x01, 0x40, 0x0C,
  0x00, 0x62, 0x00, 0x10, 0x03, 0x80, 0x18, 0x03, 0x80, 0x00, 0x80, 0x01,
  0xC0, 0x0C, 0x00, 0x66, 0x00, 0x30, 0x03, 0x80, 0x19, 0x03, 0x80, 0x01,
  0x80, 0x01, 0xC0, 0xFC, 0xFF, 0x67, 0x00, 0x30, 0x03, 0x80, 0x19, 0xFF,
  0xFF, 0x01, 0x80, 0x01, 0xC0, 0xFC, 0xFF, 0x63, 0x00, 0x30, 0x03, 0x80,
  0x19, 0xFF, 0xFF, 0x00, 0x80, 0x01, 0xC0, 0x0C, 0x00, 0x60, 0x00, 0x30,
  0x03, 0x80, 0x19, 0x03, 0x00, 0x00, 0x80, 0x01, 0xC0, 0x0C, 0x00, 0x60,
  0x00, 0x30, 0x03, 0x80, 0x19, 0x03, 0x00, 0x00, 0x80, 0x01, 0x40, 0x0C,
  0x00, 0x62, 0x00, 0x10, 0x03, 0x80, 0x18, 0x03, 0x80, 0x00, 0x80, 0x03,
  0x60, 0x18, 0x00, 0xC3, 0x00, 0x18, 0x06, 0xC0, 0x18, 0x06, 0xC0, 0x00,
  0x80, 0x07, 0x30, 0x30, 0x80, 0x81, 0x01, 0x0C, 0x0C, 0x60, 0x18, 0x0C,
  0x60, 0x00, 0x80, 0x0D, 0x18, 0x60, 0xC0, 0x00, 0x03, 0x06, 0x18, 0x30,
  0x38, 0x18, 0x30, 0x00, 0x80, 0xF9, 0x0F, 0xC0, 0x7F, 0x00, 0xFE, 0x03,
  0xF0, 0x1F, 0x70, 0xF0, 0x1F, 0x00, 0x80, 0xE1, 0x03, 0x00, 0x1F, 0x00,
  0xF8, 0x00, 0xC0, 0x07, 0x60, 0xC0, 0x07, 0x00, 0x80, 0x01, 0x00, 0x00,
  0x00, 0x00, 0x00, 0x00, 0x00, 0x00, 0x00, 0x00, 0x00, 0x00, 0x80, 0x01,
  0x00, 0x00, 0x00, 0x00, 0x00, 0x00, 0x00, 0x00, 0x00, 0x00, 0x00, 0x00,
  0x80, 0x01, 0x00, 0x00, 0x00, 0x00, 0x00, 0x00, 0x00, 0x00, 0x00, 0x00,
  0x00, 0x00, 0x80, 0x01, 0x00, 0x00, 0x00, 0x00, 0x00, 0x00, 0x00, 0x00,
  0x00, 0x00, 0x00, 0x00, 0x80, 0x01, 0x00, 0x00, 0x00, 0x00, 0x00, 0x00,
  0x00, 0x00, 0x00, 0x00, 0x00, 0x00, };
