<?xml version="1.0" encoding="utf-8"?>
<!-- Generator: Adobe Illustrator 18.1.1, SVG Export Plug-In . SVG Version: 6.00 Build 0)  -->
<!DOCTYPE svg PUBLIC "-//W3C//DTD SVG 1.1//EN" "http://www.w3.org/Graphics/SVG/1.1/DTD/svg11.dtd">
<svg version="1.1" id="Design" xmlns="http://www.w3.org/2000/svg" xmlns:xlink="http://www.w3.org/1999/xlink" x="0px" y="0px"
	 viewBox="0 0 112 122" enable-background="new 0 0 112 122" xml:space="preserve">
<line fill="none" stroke="#000000" stroke-width="3" stroke-linecap="round" stroke-linejoin="round" stroke-miterlimit="10" x1="50.6" y1="23.6" x2="55.6" y2="18.6"/>
<line fill="none" stroke="#000000" stroke-width="3" stroke-linecap="round" stroke-linejoin="round" stroke-miterlimit="10" x1="50.6" y1="32.6" x2="58.6" y2="32.6"/>
<g>
	
		<rect x="2.1" y="2.1" fill="#FFFFFF" stroke="#000000" stroke-width="4" stroke-linecap="round" stroke-linejoin="round" stroke-miterlimit="10" width="42" height="74"/>
	
		<line fill="#FFFFFF" stroke="#000000" stroke-width="3" stroke-linecap="round" stroke-linejoin="round" stroke-miterlimit="10" x1="2.6" y1="65.6" x2="43.6" y2="65.6"/>
	
		<line fill="#FFFFFF" stroke="#000000" stroke-width="3" stroke-linecap="round" stroke-linejoin="round" stroke-miterlimit="10" x1="43.6" y1="8.6" x2="2.6" y2="8.6"/>
	
		<line fill="#FFFFFF" stroke="#000000" stroke-width="3" stroke-linecap="round" stroke-linejoin="round" stroke-miterlimit="10" x1="25.6" y1="70.6" x2="20.6" y2="70.6"/>
	
		<rect x="8.6" y="14.6" fill="#B6B6B6" stroke="#B6B6B6" stroke-width="3" stroke-linecap="round" stroke-linejoin="round" stroke-miterlimit="10" width="12" height="12"/>
	
		<rect x="25.6" y="14.6" fill="#B6B6B6" stroke="#B6B6B6" stroke-width="3" stroke-linecap="round" stroke-linejoin="round" stroke-miterlimit="10" width="12" height="12"/>
	
		<rect x="8.6" y="31.6" fill="#B6B6B6" stroke="#B6B6B6" stroke-width="3" stroke-linecap="round" stroke-linejoin="round" stroke-miterlimit="10" width="12" height="12"/>
	
		<rect x="25.6" y="31.6" fill="#00FF00" stroke="#000000" stroke-width="3" stroke-linecap="round" stroke-linejoin="round" stroke-miterlimit="10" width="12" height="12"/>
	
		<rect x="8.6" y="48.6" fill="#B6B6B6" stroke="#B6B6B6" stroke-width="3" stroke-linecap="round" stroke-linejoin="round" stroke-miterlimit="10" width="12" height="12"/>
	
		<rect x="25.6" y="48.6" fill="#B6B6B6" stroke="#B6B6B6" stroke-width="3" stroke-linecap="round" stroke-linejoin="round" stroke-miterlimit="10" width="12" height="12"/>
</g>
<g>
	
		<path fill="#FFFFFF" stroke="#000000" stroke-width="4" stroke-linecap="round" stroke-linejoin="round" stroke-miterlimit="10" d="
		M62,72"/>
	
		<polygon fill="#FFFFFF" stroke="#000000" stroke-width="4" stroke-linecap="round" stroke-linejoin="round" stroke-miterlimit="10" points="
		57,57 66,48 74,48 89,63 89,70 127.9,108.9 115.4,132.4 69,86 60,86 50,76 50,64 33,47 33,42 35,40 40,40 	"/>
	
		<line fill="none" stroke="#000000" stroke-width="3" stroke-linecap="round" stroke-linejoin="round" stroke-miterlimit="10" x1="63.5" y1="51.5" x2="67.5" y2="55.5"/>
	
		<line fill="none" stroke="#000000" stroke-width="3" stroke-linecap="round" stroke-linejoin="round" stroke-miterlimit="10" x1="57.5" y1="57.5" x2="61.5" y2="61.5"/>
	
		<line fill="none" stroke="#000000" stroke-width="3" stroke-linecap="round" stroke-linejoin="round" stroke-miterlimit="10" x1="50.5" y1="64.5" x2="64.5" y2="78.5"/>
	
		<line fill="none" stroke="#000000" stroke-width="3" stroke-linecap="round" stroke-linejoin="round" stroke-miterlimit="10" x1="51.5" y1="57.5" x2="50.5" y2="58.5"/>
	
		<line fill="none" stroke="#000000" stroke-width="3" stroke-linecap="round" stroke-linejoin="round" stroke-miterlimit="10" x1="62.5" y1="69.5" x2="64.5" y2="67.5"/>
	
		<line fill="none" stroke="#000000" stroke-width="3" stroke-linecap="round" stroke-linejoin="round" stroke-miterlimit="10" x1="68.5" y1="63.5" x2="69.5" y2="62.5"/>
	
		<line fill="none" stroke="#000000" stroke-width="3" stroke-linecap="round" stroke-linejoin="round" stroke-miterlimit="10" x1="73.5" y1="58.5" x2="75.5" y2="56.5"/>
</g>
</svg>
